<svg xmlns="http://www.w3.org/2000/svg" xmlns:xlink="http://www.w3.org/1999/xlink" style="margin:auto;background:#1c1c1c;display:block;z-index:1;position:relative" width="1602" height="2000" preserveAspectRatio="xMidYMid" viewBox="0 0 1602 2000">
<g transform="translate(801,1000) scale(1,1) translate(-801,-1000)"><defs>
  <path id="path-kmgzohxjgxa-1" d="M-35 -35L35 -35L35 35L-35 35Z" fill="none" stroke="inherit" stroke-width="1.5789473684210524" transform="scale(0.5700000000000001)"></path>
  <path id="path-kmgzohxjgxa-2" d="M0 -37A37 37 0 0 1 0 37A37 37 0 0 1 0 -37" fill="none" stroke="inherit" stroke-width="1.5789473684210524" transform="scale(0.5700000000000001)"></path>
  <path id="path-kmgzohxjgxa-3" d="M0 -34.641L40 34.641L-40 34.641Z" fill="none" stroke="inherit" stroke-width="1.5789473684210524" transform="scale(0.5700000000000001)"></path>
</defs><path id="path0" d="M 101.74906540652638 483.3688787253829
c 0 39.659082379415025 -9.703818029005802 11.391438555789422 -21.095256584795226 11.391438555789422
S 59.55855223693594 523.0279611047979 59.55855223693594 483.3688787253829
s 9.703818029005802 -11.391438555789422 21.095256584795226 -11.391438555789422
S 101.74906540652638 443.7097963459679 101.74906540652638 483.3688787253829
z" fill="none" stroke="none"></path>
<use xlink:href="#path-kmgzohxjgxa-2" x="0" y="0" stroke="#52c0e1">
  <animateMotion begin="-1.9045085455110589s" dur="39.41519323001541s" keyPoints="0;1" keyTimes="0;1" repeatCount="indefinite" calcMode="linear">
    <mpath xlink:href="#path0"></mpath>
  </animateMotion>
</use><path id="path1" d="M 151.99091571234348 913.6352501099893
c 0 39.4107748344221 -9.643061927571363 11.320116175844646 -20.96317810341601 11.320116175844646
S 110.06455950551147 953.0460249444114 110.06455950551147 913.6352501099893
s 9.643061927571363 -11.320116175844646 20.96317810341601 -11.320116175844646
S 151.99091571234348 874.2244752755672 151.99091571234348 913.6352501099893
z" fill="none" stroke="none"></path>
<use xlink:href="#path-kmgzohxjgxa-1" x="0" y="0" stroke="#5aacb8">
  <animateMotion begin="-6.975667414360236s" dur="27.020250456227345s" keyPoints="1;0" keyTimes="0;1" repeatCount="indefinite" calcMode="linear">
    <mpath xlink:href="#path1"></mpath>
  </animateMotion>
</use><path id="path2" d="M 167.8173565090426 141.99191216764297
c 0 20.54757047463975 -5.027597031028874 5.901961732077375 -10.929558763106249 5.901961732077375
S 145.9582389828301 162.5394826422827 145.9582389828301 141.99191216764297
s 5.027597031028874 -5.901961732077375 10.929558763106249 -5.901961732077375
S 167.8173565090426 121.44434169300322 167.8173565090426 141.99191216764297
z" fill="none" stroke="none"></path>
<use xlink:href="#path-kmgzohxjgxa-2" x="0" y="0" stroke="#52c0e1">
  <animateMotion begin="-0.22063218172213128s" dur="30.140709777476076s" keyPoints="1;0" keyTimes="0;1" repeatCount="indefinite" calcMode="linear">
    <mpath xlink:href="#path2"></mpath>
  </animateMotion>
</use><path id="path3" d="M 227.69315608718028 888.149156470853
c 0 22.79161216625183 -5.576671061955234 6.5465268988170155 -12.123197960772249 6.5465268988170155
S 203.4467601656358 910.9407686371048 203.4467601656358 888.149156470853
s 5.576671061955234 -6.5465268988170155 12.123197960772249 -6.5465268988170155
S 227.69315608718028 865.3575443046011 227.69315608718028 888.149156470853
z" fill="none" stroke="none"></path>
<use xlink:href="#path-kmgzohxjgxa-2" x="0" y="0" stroke="#5aacb8">
  <animateMotion begin="-8.331952693022046s" dur="33.59621621935473s" keyPoints="0;1" keyTimes="0;1" repeatCount="indefinite" calcMode="linear">
    <mpath xlink:href="#path3"></mpath>
  </animateMotion>
</use><path id="path4" d="M 269.31355310752593 45.12601726611248
c 0 30.185858901672017 -7.3859016461537905 8.670406280267494 -16.056307926421283 8.670406280267494
S 237.20093725468337 75.31187616778449 237.20093725468337 45.12601726611248
s 7.3859016461537905 -8.670406280267494 16.056307926421283 -8.670406280267494
S 269.31355310752593 14.94015836444046 269.31355310752593 45.12601726611248
z" fill="none" stroke="none"></path>
<use xlink:href="#path-kmgzohxjgxa-2" x="0" y="0" stroke="#52c0e1">
  <animateMotion begin="-6.418115799539612s" dur="35.65640077216892s" keyPoints="0;1" keyTimes="0;1" repeatCount="indefinite" calcMode="linear">
    <mpath xlink:href="#path4"></mpath>
  </animateMotion>
</use><path id="path5" d="M 330.1453035488229 1124.073806239497
c 0 25.30895121516056 -6.1926157228584335 7.2695923703120755 -13.46220809317051 7.2695923703120755
S 303.2208873624819 1149.3827574546574 303.2208873624819 1124.073806239497
s 6.1926157228584335 -7.2695923703120755 13.46220809317051 -7.2695923703120755
S 330.1453035488229 1098.7648550243364 330.1453035488229 1124.073806239497
z" fill="none" stroke="none"></path>
<use xlink:href="#path-kmgzohxjgxa-1" x="0" y="0" stroke="#5aacb8">
  <animateMotion begin="-5.677963082858888s" dur="25.869267512088427s" keyPoints="1;0" keyTimes="0;1" repeatCount="indefinite" calcMode="linear">
    <mpath xlink:href="#path5"></mpath>
  </animateMotion>
</use><path id="path6" d="M 391.8239943428973 1278.7833469600162
c 0 20.781362927049294 -5.084801567256742 5.969114883301393 -11.053916450558134 5.969114883301393
S 369.7161614417811 1299.5647098870654 369.7161614417811 1278.7833469600162
s 5.084801567256742 -5.969114883301393 11.053916450558134 -5.969114883301393
S 391.8239943428973 1258.001984032967 391.8239943428973 1278.7833469600162
z" fill="none" stroke="none"></path>
<use xlink:href="#path-kmgzohxjgxa-3" x="0" y="0" stroke="#52c0e1">
  <animateMotion begin="-5.653963438625686s" dur="21.57229172590479s" keyPoints="0;1" keyTimes="0;1" repeatCount="indefinite" calcMode="linear">
    <mpath xlink:href="#path6"></mpath>
  </animateMotion>
</use><path id="path7" d="M 415.3511338332669 1439.4997324488443
c 0 28.728692874399375 -7.029361022459421 8.251858591582799 -15.281219614042222 8.251858591582799
S 384.7886946051824 1468.2284253232438 384.7886946051824 1439.4997324488443
s 7.029361022459421 -8.251858591582799 15.281219614042222 -8.251858591582799
S 415.3511338332669 1410.7710395744448 415.3511338332669 1439.4997324488443
z" fill="none" stroke="none"></path>
<use xlink:href="#path-kmgzohxjgxa-2" x="0" y="0" stroke="#52c0e1">
  <animateMotion begin="-3.4722641601218873s" dur="37.73801550382168s" keyPoints="1;0" keyTimes="0;1" repeatCount="indefinite" calcMode="linear">
    <mpath xlink:href="#path7"></mpath>
  </animateMotion>
</use><path id="path8" d="M 485.6566470704885 487.3199809529148
c 0 49.564437517358236 -12.127468754247225 14.236593754985876 -26.3640625092331 14.236593754985876
S 432.92852205202223 536.8844184702731 432.92852205202223 487.3199809529148
s 12.127468754247225 -14.236593754985876 26.3640625092331 -14.236593754985876
S 485.6566470704885 437.7555434355566 485.6566470704885 487.3199809529148
z" fill="none" stroke="none"></path>
<use xlink:href="#path-kmgzohxjgxa-3" x="0" y="0" stroke="#298570">
  <animateMotion begin="-8.295625938762036s" dur="27.59380926050653s" keyPoints="0;1" keyTimes="0;1" repeatCount="indefinite" calcMode="linear">
    <mpath xlink:href="#path8"></mpath>
  </animateMotion>
</use><path id="path9" d="M 515.5421573816348 214.43465438163435
c 0 36.89298496815683 -9.027006960293692 10.596921214257813 -19.623928174551505 10.596921214257813
S 476.2943010325318 251.32763934979118 476.2943010325318 214.43465438163435
s 9.027006960293692 -10.596921214257813 19.623928174551505 -10.596921214257813
S 515.5421573816348 177.5416694134775 515.5421573816348 214.43465438163435
z" fill="none" stroke="none"></path>
<use xlink:href="#path-kmgzohxjgxa-2" x="0" y="0" stroke="#52c0e1">
  <animateMotion begin="-1.186536728632006s" dur="23.79269785382852s" keyPoints="0;1" keyTimes="0;1" repeatCount="indefinite" calcMode="linear">
    <mpath xlink:href="#path9"></mpath>
  </animateMotion>
</use><path id="path10" d="M 589.4933425049937 488.00264112956006
c 0 33.07475022772778 -8.092758034444032 9.500194214347342 -17.592952248791374 9.500194214347342
S 554.3074380074111 521.0773913572879 554.3074380074111 488.00264112956006
s 8.092758034444032 -9.500194214347342 17.592952248791374 -9.500194214347342
S 589.4933425049937 454.92789090183226 589.4933425049937 488.00264112956006
z" fill="none" stroke="none"></path>
<use xlink:href="#path-kmgzohxjgxa-3" x="0" y="0" stroke="#52c0e1">
  <animateMotion begin="-5.821128428984743s" dur="27.521847715784745s" keyPoints="0;1" keyTimes="0;1" repeatCount="indefinite" calcMode="linear">
    <mpath xlink:href="#path10"></mpath>
  </animateMotion>
</use><path id="path11" d="M 623.6613221593525 1920.3585081196388
c 0 30.406219284561992 -7.43981961218006 8.733701283863551 -16.173520896043613 8.733701283863551
S 591.3142803672652 1950.7647274042008 591.3142803672652 1920.3585081196388
s 7.43981961218006 -8.733701283863551 16.173520896043613 -8.733701283863551
S 623.6613221593525 1889.9522888350768 623.6613221593525 1920.3585081196388
z" fill="none" stroke="none"></path>
<use xlink:href="#path-kmgzohxjgxa-1" x="0" y="0" stroke="#298570">
  <animateMotion begin="-4.008622701130296s" dur="22.823907604100675s" keyPoints="0;1" keyTimes="0;1" repeatCount="indefinite" calcMode="linear">
    <mpath xlink:href="#path11"></mpath>
  </animateMotion>
</use><path id="path12" d="M 662.4324101982901 1664.8601559082363
c 0 33.86128672487427 -8.285208453958596 9.726114272038354 -18.01132272599695 9.726114272038354
S 626.4097647462962 1698.7214426331104 626.4097647462962 1664.8601559082363
s 8.285208453958596 -9.726114272038354 18.01132272599695 -9.726114272038354
S 662.4324101982901 1630.998869183362 662.4324101982901 1664.8601559082363
z" fill="none" stroke="none"></path>
<use xlink:href="#path-kmgzohxjgxa-3" x="0" y="0" stroke="#5aacb8">
  <animateMotion begin="-3.8457356308767787s" dur="39.81358380878598s" keyPoints="0;1" keyTimes="0;1" repeatCount="indefinite" calcMode="linear">
    <mpath xlink:href="#path12"></mpath>
  </animateMotion>
</use><path id="path13" d="M 702.1561427128747 676.8533761932837
c 0 25.926649119285386 -6.343754571740041 7.447016236390483 -13.790770808130524 7.447016236390483
S 674.5746010966136 702.780025312569 674.5746010966136 676.8533761932837
s 6.343754571740041 -7.447016236390483 13.790770808130524 -7.447016236390483
S 702.1561427128747 650.9267270739983 702.1561427128747 676.8533761932837
z" fill="none" stroke="none"></path>
<use xlink:href="#path-kmgzohxjgxa-1" x="0" y="0" stroke="#298570">
  <animateMotion begin="-8.84606780423528s" dur="20.349134359963564s" keyPoints="0;1" keyTimes="0;1" repeatCount="indefinite" calcMode="linear">
    <mpath xlink:href="#path13"></mpath>
  </animateMotion>
</use><path id="path14" d="M 775.3006109420921 241.83384486642302
c 0 55.5121822128426 -13.58276798824872 15.944988507944151 -29.527756496192872 15.944988507944151
S 716.2450979497064 297.34602707926564 716.2450979497064 241.83384486642302
s 13.58276798824872 -15.944988507944151 29.527756496192872 -15.944988507944151
S 775.3006109420921 186.3216626535804 775.3006109420921 241.83384486642302
z" fill="none" stroke="none"></path>
<use xlink:href="#path-kmgzohxjgxa-3" x="0" y="0" stroke="#52c0e1">
  <animateMotion begin="-2.138959621620624s" dur="29.364260873008075s" keyPoints="1;0" keyTimes="0;1" repeatCount="indefinite" calcMode="linear">
    <mpath xlink:href="#path14"></mpath>
  </animateMotion>
</use><path id="path15" d="M 817.3543368683344 590.9835670592906
c 0 33.10088029704946 -8.099151562044014 9.507699659790802 -17.606851221834816 9.507699659790802
S 782.1406344246647 624.0844473563401 782.1406344246647 590.9835670592906
s 8.099151562044014 -9.507699659790802 17.606851221834816 -9.507699659790802
S 817.3543368683344 557.8826867622412 817.3543368683344 590.9835670592906
z" fill="none" stroke="none"></path>
<use xlink:href="#path-kmgzohxjgxa-1" x="0" y="0" stroke="#298570">
  <animateMotion begin="-3.2042092649330933s" dur="28.09156363100164s" keyPoints="0;1" keyTimes="0;1" repeatCount="indefinite" calcMode="linear">
    <mpath xlink:href="#path15"></mpath>
  </animateMotion>
</use><path id="path16" d="M 855.6570719435119 1294.2648460384473
c 0 41.91231531502335 -10.255140981335499 12.038643760698196 -22.293784742033694 12.038643760698196
S 811.0695024594445 1336.1771613534706 811.0695024594445 1294.2648460384473
s 10.255140981335499 -12.038643760698196 22.293784742033694 -12.038643760698196
S 855.6570719435119 1252.352530723424 855.6570719435119 1294.2648460384473
z" fill="none" stroke="none"></path>
<use xlink:href="#path-kmgzohxjgxa-1" x="0" y="0" stroke="#52c0e1">
  <animateMotion begin="-8.844746348892054s" dur="26.581129376889557s" keyPoints="0;1" keyTimes="0;1" repeatCount="indefinite" calcMode="linear">
    <mpath xlink:href="#path16"></mpath>
  </animateMotion>
</use><path id="path17" d="M 905.6805648553108 735.068780653639
c 0 25.343269436098694 -6.201012734364574 7.27944973164537 -13.480462466009943 7.27944973164537
S 878.7196399232909 760.4120500897377 878.7196399232909 735.068780653639
s 6.201012734364574 -7.27944973164537 13.480462466009943 -7.27944973164537
S 905.6805648553108 709.7255112175403 905.6805648553108 735.068780653639
z" fill="none" stroke="none"></path>
<use xlink:href="#path-kmgzohxjgxa-3" x="0" y="0" stroke="#298570">
  <animateMotion begin="-0.834704783506095s" dur="34.72428286222386s" keyPoints="1;0" keyTimes="0;1" repeatCount="indefinite" calcMode="linear">
    <mpath xlink:href="#path17"></mpath>
  </animateMotion>
</use><path id="path18" d="M 983.4964180717039 1830.4346467571402
c 0 56.85407435447428 -13.911103299499024 16.33042561245538 -30.2415289119544 16.33042561245538
S 923.013360247795 1887.2887211116144 923.013360247795 1830.4346467571402
s 13.911103299499024 -16.33042561245538 30.2415289119544 -16.33042561245538
S 983.4964180717039 1773.580572402666 983.4964180717039 1830.4346467571402
z" fill="none" stroke="none"></path>
<use xlink:href="#path-kmgzohxjgxa-1" x="0" y="0" stroke="#5aacb8">
  <animateMotion begin="-0.7812598957085282s" dur="31.76265768914339s" keyPoints="1;0" keyTimes="0;1" repeatCount="indefinite" calcMode="linear">
    <mpath xlink:href="#path18"></mpath>
  </animateMotion>
</use><path id="path19" d="M 1025.6342896373724 242.11865067915025
c 0 64.46736165515365 -15.7739289156227 18.517220900948388 -34.291149816571085 18.517220900948388
S 957.0519900042301 306.5860123343039 957.0519900042301 242.11865067915025
s 15.7739289156227 -18.517220900948388 34.291149816571085 -18.517220900948388
S 1025.6342896373724 177.65128902399658 1025.6342896373724 242.11865067915025
z" fill="none" stroke="none"></path>
<use xlink:href="#path-kmgzohxjgxa-2" x="0" y="0" stroke="#5aacb8">
  <animateMotion begin="-3.380764517129047s" dur="28.794055679751093s" keyPoints="0;1" keyTimes="0;1" repeatCount="indefinite" calcMode="linear">
    <mpath xlink:href="#path19"></mpath>
  </animateMotion>
</use><path id="path20" d="M 1079.514788930812 117.23519821769179
c 0 42.164791953971665 -10.316917180227108 12.111163646353564 -22.428080826580672 12.111163646353564
S 1034.6586272776506 159.39999017166346 1034.6586272776506 117.23519821769179
s 10.316917180227108 -12.111163646353564 22.428080826580672 -12.111163646353564
S 1079.514788930812 75.07040626372012 1079.514788930812 117.23519821769179
z" fill="none" stroke="none"></path>
<use xlink:href="#path-kmgzohxjgxa-3" x="0" y="0" stroke="#52c0e1">
  <animateMotion begin="-8.541428049038577s" dur="39.87545508741695s" keyPoints="0;1" keyTimes="0;1" repeatCount="indefinite" calcMode="linear">
    <mpath xlink:href="#path20"></mpath>
  </animateMotion>
</use><path id="path21" d="M 1112.5820284664658 596.048096938748
c 0 27.09210110805351 -6.628918356225857 7.781773722526008 -14.410692078751865 7.781773722526008
S 1083.760644308962 623.1401980468015 1083.760644308962 596.048096938748
s 6.628918356225857 -7.781773722526008 14.410692078751865 -7.781773722526008
S 1112.5820284664658 568.9559958306945 1112.5820284664658 596.048096938748
z" fill="none" stroke="none"></path>
<use xlink:href="#path-kmgzohxjgxa-2" x="0" y="0" stroke="#5aacb8">
  <animateMotion begin="-2.0666302222247346s" dur="33.32693000888837s" keyPoints="1;0" keyTimes="0;1" repeatCount="indefinite" calcMode="linear">
    <mpath xlink:href="#path21"></mpath>
  </animateMotion>
</use><path id="path22" d="M 1183.4615577905327 194.37280785286273
c 0 61.91300882374854 -15.148927690917194 17.78352381107671 -32.9324515019939 17.78352381107671
S 1117.5966547865448 256.28581667661126 1117.5966547865448 194.37280785286273
s 15.148927690917194 -17.78352381107671 32.9324515019939 -17.78352381107671
S 1183.4615577905327 132.4597990291142 1183.4615577905327 194.37280785286273
z" fill="none" stroke="none"></path>
<use xlink:href="#path-kmgzohxjgxa-1" x="0" y="0" stroke="#298570">
  <animateMotion begin="-6.741478131978116s" dur="39.70313726841117s" keyPoints="0;1" keyTimes="0;1" repeatCount="indefinite" calcMode="linear">
    <mpath xlink:href="#path22"></mpath>
  </animateMotion>
</use><path id="path23" d="M 1223.7727524625961 737.2598147904481
c 0 39.43832514879153 -9.64980296193835 11.328029564014587 -20.977832525952937 11.328029564014587
S 1181.8170874106904 776.6981399392396 1181.8170874106904 737.2598147904481
s 9.64980296193835 -11.328029564014587 20.977832525952937 -11.328029564014587
S 1223.7727524625961 697.8214896416566 1223.7727524625961 737.2598147904481
z" fill="none" stroke="none"></path>
<use xlink:href="#path-kmgzohxjgxa-3" x="0" y="0" stroke="#298570">
  <animateMotion begin="-7.182196327042211s" dur="26.729267620457904s" keyPoints="1;0" keyTimes="0;1" repeatCount="indefinite" calcMode="linear">
    <mpath xlink:href="#path23"></mpath>
  </animateMotion>
</use><path id="path24" d="M 1236.9319092321343 1409.7015844408384
c 0 30.633302228813047 -7.49538246024149 8.798927235935663 -16.29430969617715 8.798927235935663
S 1204.34328983978 1440.3348866696515 1204.34328983978 1409.7015844408384
s 7.49538246024149 -8.798927235935663 16.29430969617715 -8.798927235935663
S 1236.9319092321343 1379.0682822120252 1236.9319092321343 1409.7015844408384
z" fill="none" stroke="none"></path>
<use xlink:href="#path-kmgzohxjgxa-2" x="0" y="0" stroke="#298570">
  <animateMotion begin="-2.3798031509719997s" dur="22.70502743542755s" keyPoints="0;1" keyTimes="0;1" repeatCount="indefinite" calcMode="linear">
    <mpath xlink:href="#path24"></mpath>
  </animateMotion>
</use><path id="path25" d="M 1293.015408057062 1903.5760077094542
c 0 38.1886115006737 -9.344021962930798 10.969069260831807 -20.313091223762605 10.969069260831807
S 1252.3892256095369 1941.7646192101279 1252.3892256095369 1903.5760077094542
s 9.344021962930798 -10.969069260831807 20.313091223762605 -10.969069260831807
S 1293.015408057062 1865.3873962087805 1293.015408057062 1903.5760077094542
z" fill="none" stroke="none"></path>
<use xlink:href="#path-kmgzohxjgxa-1" x="0" y="0" stroke="#5aacb8">
  <animateMotion begin="-5.143847513317221s" dur="32.86379579398635s" keyPoints="0;1" keyTimes="0;1" repeatCount="indefinite" calcMode="linear">
    <mpath xlink:href="#path25"></mpath>
  </animateMotion>
</use><path id="path26" d="M 1354.9834545796236 950.2264692147548
c 0 33.793377774185586 -8.268592434109237 9.706608509606498 -17.975200943715738 9.706608509606498
S 1319.0330526921923 984.0198469889405 1319.0330526921923 950.2264692147548
s 8.268592434109237 -9.706608509606498 17.975200943715738 -9.706608509606498
S 1354.9834545796236 916.4330914405692 1354.9834545796236 950.2264692147548
z" fill="none" stroke="none"></path>
<use xlink:href="#path-kmgzohxjgxa-3" x="0" y="0" stroke="#298570">
  <animateMotion begin="-6.637642782784637s" dur="31.56073213493942s" keyPoints="1;0" keyTimes="0;1" repeatCount="indefinite" calcMode="linear">
    <mpath xlink:href="#path26"></mpath>
  </animateMotion>
</use><path id="path27" d="M 1384.9575792288952 372.81723796174697
c 0 27.78068062561117 -6.797400578606988 7.979557200973421 -14.776957779580409 7.979557200973421
S 1355.4036636697342 400.59791858735815 1355.4036636697342 372.81723796174697
s 6.797400578606988 -7.979557200973421 14.776957779580409 -7.979557200973421
S 1384.9575792288952 345.0365573361358 1384.9575792288952 372.81723796174697
z" fill="none" stroke="none"></path>
<use xlink:href="#path-kmgzohxjgxa-3" x="0" y="0" stroke="#5aacb8">
  <animateMotion begin="-8.972648452237134s" dur="31.907416789130703s" keyPoints="1;0" keyTimes="0;1" repeatCount="indefinite" calcMode="linear">
    <mpath xlink:href="#path27"></mpath>
  </animateMotion>
</use><path id="path28" d="M 1448.9991164611638 751.4481684024032
c 0 18.82384677705288 -4.6058348497044275 5.406849606174763 -10.01268445587919 5.406849606174763
S 1428.9737475494053 770.272015179456 1428.9737475494053 751.4481684024032
s 4.6058348497044275 -5.406849606174763 10.01268445587919 -5.406849606174763
S 1448.9991164611638 732.6243216253504 1448.9991164611638 751.4481684024032
z" fill="none" stroke="none"></path>
<use xlink:href="#path-kmgzohxjgxa-1" x="0" y="0" stroke="#52c0e1">
  <animateMotion begin="-1.6312175201588475s" dur="34.78614134100317s" keyPoints="0;1" keyTimes="0;1" repeatCount="indefinite" calcMode="linear">
    <mpath xlink:href="#path28"></mpath>
  </animateMotion>
</use><path id="path29" d="M 1483.2186223819667 803.3297438949668
c 0 45.97801637096724 -11.249940175874961 13.20645151080974 -24.456391686684704 13.20645151080974
S 1434.305839008597 849.307760265934 1434.305839008597 803.3297438949668
s 11.249940175874961 -13.20645151080974 24.456391686684704 -13.20645151080974
S 1483.2186223819667 757.3517275239996 1483.2186223819667 803.3297438949668
z" fill="none" stroke="none"></path>
<use xlink:href="#path-kmgzohxjgxa-3" x="0" y="0" stroke="#298570">
  <animateMotion begin="-0.6065446672387398s" dur="30.62530988171654s" keyPoints="0;1" keyTimes="0;1" repeatCount="indefinite" calcMode="linear">
    <mpath xlink:href="#path29"></mpath>
  </animateMotion>
</use><path id="path30" d="M 1575.3050782805306 1535.148651061891
c 0 55.727040423420746 -13.635339678071032 16.006703100344257 -29.642042778415288 16.006703100344257
S 1516.0209927237 1590.8756914853118 1516.0209927237 1535.148651061891
s 13.635339678071032 -16.006703100344257 29.642042778415288 -16.006703100344257
S 1575.3050782805306 1479.4216106384704 1575.3050782805306 1535.148651061891
z" fill="none" stroke="none"></path>
<use xlink:href="#path-kmgzohxjgxa-3" x="0" y="0" stroke="#52c0e1">
  <animateMotion begin="-1.403865552818775s" dur="30.6468461153959s" keyPoints="0;1" keyTimes="0;1" repeatCount="indefinite" calcMode="linear">
    <mpath xlink:href="#path30"></mpath>
  </animateMotion>
</use></g>
</svg>